<?xml version="1.0" encoding="utf-8"?>
<!-- Generator: Adobe Illustrator 26.3.1, SVG Export Plug-In . SVG Version: 6.00 Build 0)  -->
<svg version="1.1" id="Camada_1" xmlns="http://www.w3.org/2000/svg" xmlns:xlink="http://www.w3.org/1999/xlink" x="0px" y="0px"
	 viewBox="0 0 385 500" style="enable-background:new 0 0 385 500;" xml:space="preserve">
<style type="text/css">
	.st0{fill:#FFBB00;}
</style>
<path class="st0" d="M362.7,208.5c-14.7-28.9-35-51.2-60.8-66.8c-25.4-15.6-54-23.4-85.6-23.4c-27.2,0-51.5,5.6-72.9,16.7
	c-21,11.2-37.5,25.7-49.5,43.5V0H0.3v494.6h93.6v-52.8c12.5,17.4,29,31.7,49.5,42.8c21,10.7,45.3,16,72.9,16
	c31.7,0,60.2-8.1,85.6-24.1c25.8-16,46.1-38.5,60.8-67.5c15.1-29.4,22.7-63,22.7-100.9C385.4,270.2,377.9,237,362.7,208.5z
	 M275.7,367.1c-8.9,16.5-20.9,29.2-36.1,38.1c-14.7,8.9-30.7,13.4-48.1,13.4c-16.9,0-32.9-4.2-48.1-12.7
	c-14.7-8.9-26.7-21.6-36.1-38.1c-8.9-16.5-13.4-35.9-13.4-58.2c0-22.3,4.5-41.7,13.4-58.2c9.4-16.5,21.4-28.9,36.1-37.4
	c15.1-8.9,31.2-13.4,48.1-13.4c16.9-0.1,33.5,4.3,48.1,12.7c15.2,8.4,27.2,20.9,36.1,37.4c9.3,16.1,14,35.2,14,57.5
	C289.7,330.9,285.1,350.5,275.7,367.1z"/>
</svg>
