<?xml version="1.0" encoding="utf-8"?>
<!-- Generator: Adobe Illustrator 26.3.1, SVG Export Plug-In . SVG Version: 6.00 Build 0)  -->
<svg version="1.1" id="Camada_1" xmlns="http://www.w3.org/2000/svg" xmlns:xlink="http://www.w3.org/1999/xlink" x="0px" y="0px"
	 viewBox="0 0 385 500" style="enable-background:new 0 0 385 500;" xml:space="preserve">
<style type="text/css">
	.st0{fill:#FFBB00;}
	.st1{fill:#FFFFFF;}
</style>
<path class="st0" d="M93.9,178.5c12-17.8,28.5-32.3,49.5-43.5c21.4-11.1,45.7-16.7,72.9-16.7c31.6,0,60.2,7.8,85.6,23.4
	c25.8,15.6,46.1,37.9,60.8,66.8c15.2,28.5,22.7,61.7,22.7,99.6s-7.6,71.5-22.7,100.9c-14.7,29-35,51.5-60.8,67.5
	c-25.4,16-53.9,24.1-85.6,24.1c-27.6,0-51.9-5.3-72.9-16c-20.5-11.1-37-25.4-49.5-42.8v52.8H0.3V0h93.6
	C93.9,0,93.9,178.5,93.9,178.5z"/>
<path class="st1" d="M289.7,308.2c0-22.3-4.7-41.4-14-57.5c-8.9-16.5-20.9-29-36.1-37.4c-14.6-8.4-31.2-12.8-48.1-12.7
	c-16.9,0-33,4.5-48.1,13.4c-14.7,8.5-26.7,20.9-36.1,37.4c-8.9,16.5-13.4,35.9-13.4,58.2c0,22.3,4.5,41.7,13.4,58.2
	c9.4,16.5,21.4,29.2,36.1,38.1c15.2,8.5,31.2,12.7,48.1,12.7c17.4,0,33.4-4.5,48.1-13.4c15.2-8.9,27.2-21.6,36.1-38.1
	C285.1,350.5,289.7,330.9,289.7,308.2z"/>
</svg>
